<svg width="99" height="39" viewBox="0 0 99 39" fill="none" xmlns="http://www.w3.org/2000/svg">
<path d="M98.507 3.54921C98.2609 2.81082 97.7686 2.23652 97.1943 1.74426C96.5379 1.25199 95.7996 0.841776 95.0612 0.595645C94.0766 0.349514 93.0921 0.267469 92.1076 0.267469H75.6989V16.266L65.1153 0.267469H61.5874L51.0038 16.266C51.0038 16.0198 51.0858 15.7737 51.0858 15.4455V13.0663C51.0858 12.3279 51.0038 11.5895 50.7576 10.9331C50.5115 10.1947 50.0192 9.62044 49.4449 9.12818C48.7886 8.63592 48.0502 8.2257 47.3118 7.97957C46.3273 7.73344 45.3427 7.65139 44.3582 7.65139H33.3644C31.8056 7.65139 31.8056 6.99505 31.8056 6.66687V5.51826C31.8056 5.19009 31.8056 4.53374 33.3644 4.53374H50.2654V0.0213424H33.3644C32.3799 -0.0607012 31.3133 0.103381 30.4108 0.349512C29.5904 0.513599 28.852 0.923818 28.2777 1.49812C27.7034 1.99038 27.2111 2.56469 26.965 3.30309C26.7189 3.95943 26.6368 4.69783 26.6368 5.43622V6.58483C26.6368 7.32322 26.7189 8.06161 26.965 8.71796C27.2111 9.45635 27.7034 10.0307 28.2777 10.5229C28.934 11.0152 29.6724 11.4254 30.4108 11.6715C31.3953 11.9177 32.3799 11.9997 33.3644 11.9997H44.5223C46.0811 11.9997 46.0811 12.6561 46.0811 12.9842V15.3635C46.0811 15.6917 46.0811 16.348 44.5223 16.348H28.1136L17.4479 0.185427H13.9201L0.0546875 21.0245H6.04387L15.3968 6.42074L24.7498 21.0245H53.9573L63.4744 6.42074L72.8274 21.0245H81.1138V13.9688H92.2717C93.2562 14.0508 94.3228 13.8867 95.2252 13.6406C96.0457 13.4765 96.7841 13.0663 97.3584 12.492C97.9327 11.9997 98.4249 11.4254 98.6711 10.687C98.9172 10.0307 98.9993 9.29226 98.9993 8.55387V5.76439C98.9993 5.026 98.7531 4.28761 98.507 3.54921ZM93.6664 5.6003V8.47183C93.6664 8.8 93.6664 9.45636 92.1076 9.45636H80.9497V4.77987H92.1076C93.6664 4.77987 93.6664 5.27213 93.6664 5.6003Z" fill="#413954"/>
<path d="M0 32.4912H2.05224C3.92341 32.4912 5.19098 33.7588 5.19098 35.4489C5.19098 37.1389 3.92341 38.4065 2.05224 38.4065H0V32.4912ZM2.05224 37.8029C3.56125 37.8029 4.52701 36.7768 4.52701 35.4489C4.52701 34.1209 3.56125 33.0948 2.05224 33.0948H0.663966V37.8029H2.05224Z" fill="#413954"/>
<path d="M7.0625 32.4902H7.72647V38.4055H7.0625V32.4902Z" fill="#413954"/>
<path d="M9.65625 35.4485C9.65625 33.8188 10.8634 32.3701 12.6139 32.3701C13.64 32.3701 14.2436 32.6719 14.8472 33.1548L14.4247 33.6377C13.9418 33.2152 13.4589 32.9737 12.6139 32.9737C11.286 32.9737 10.3806 34.0602 10.3806 35.3881C10.3806 36.7764 11.286 37.8629 12.7346 37.8629C13.3986 37.8629 14.0625 37.6215 14.4247 37.2593V35.8107H12.6139V35.207H15.0283V37.5611C14.4851 38.044 13.64 38.4665 12.6743 38.4665C10.8031 38.5269 9.65625 37.1989 9.65625 35.4485Z" fill="#413954"/>
<path d="M17.0195 32.4902H17.6835V38.4055H17.0195V32.4902Z" fill="#413954"/>
<path d="M21.3669 33.0938H19.375V32.4902H24.0227V33.0938H22.0308V38.4055H21.3669V33.0938Z" fill="#413954"/>
<path d="M27.1615 32.4902H27.7651L30.4813 38.4659H29.757L29.093 36.8965H25.894L25.1696 38.4659H24.4453L27.1615 32.4902ZM28.7912 36.2326L27.4633 33.2146L26.1354 36.2326H28.7912Z" fill="#413954"/>
<path d="M32.0547 32.4902H32.7186V37.8019H36.0385V38.4055H32.0547V32.4902Z" fill="#413954"/>
<path d="M37.0625 35.5693H40.4427V36.2333H37.0625V35.5693Z" fill="#413954"/>
<path d="M44.4254 32.4902H45.029L47.7452 38.4659H47.0209L46.3569 36.8965H43.1578L42.4335 38.4659H41.7695L44.4254 32.4902ZM46.1155 36.2326L44.7875 33.2146L43.4596 36.2326H46.1155Z" fill="#413954"/>
<path d="M49.375 32.4902H53.1777V33.0938H50.039V38.4055H49.375V32.4902Z" fill="#413954"/>
<path d="M54.7461 32.4902H59.0317V33.0938H55.4101V35.0857H58.6695V35.6893H55.4101V37.7416H59.092V38.3452H54.7461V32.4902Z" fill="#413954"/>
<path d="M60.8438 32.4902H61.5077V35.1461H64.9482V32.4902H65.6122V38.4055H64.9482V35.7497H61.5077V38.4055H60.8438V32.4902Z" fill="#413954"/>
<path d="M69.2341 33.0938H67.2422V32.4902H71.8899V33.0938H69.898V38.4055H69.2341V33.0938Z" fill="#413954"/>
<path d="M72.9141 35.4485C72.9141 33.7584 74.1816 32.3701 75.9321 32.3701C77.0185 32.3701 77.6222 32.7926 78.2258 33.3359L77.8032 33.8188C77.3204 33.3359 76.7167 33.0341 75.9321 33.0341C74.6041 33.0341 73.6384 34.1206 73.6384 35.4485C73.6384 36.8368 74.6041 37.8629 75.9321 37.8629C76.7167 37.8629 77.26 37.5611 77.8636 37.0179L78.2861 37.5007C77.6825 38.1043 77.0185 38.5269 75.9321 38.5269C74.1816 38.5269 72.9141 37.1989 72.9141 35.4485Z" fill="#413954"/>
<path d="M81.3669 33.0938H79.375V32.4902H84.0227V33.0938H82.0308V38.4055H81.3669V33.0938Z" fill="#413954"/>
<path d="M85.7127 32.4902H88.2478C88.9118 32.4902 89.455 32.6713 89.8172 33.0335C90.0586 33.2749 90.1794 33.5767 90.1794 33.9992C90.1794 34.7839 89.6965 35.1461 89.2136 35.3875C89.9379 35.5686 90.4812 35.9911 90.4812 36.8362C90.4812 37.8623 89.6361 38.4659 88.3082 38.4659H85.6523V32.4902H85.7127ZM88.1271 35.1461C88.9118 35.1461 89.5154 34.7839 89.5154 34.0596C89.5154 33.456 89.0325 33.0938 88.1875 33.0938H86.3767V35.1461H88.1271ZM88.3686 37.8019C89.274 37.8019 89.8172 37.3794 89.8172 36.7154C89.8172 36.0515 89.274 35.6893 88.2478 35.6893H86.3767V37.8019H88.3686Z" fill="#413954"/>
<path d="M91.9883 35.4485C91.9883 33.8188 93.1955 32.3701 95.0063 32.3701C96.8171 32.3701 98.0243 33.7584 98.0243 35.4485C98.0243 37.0782 96.8171 38.5269 95.0063 38.5269C93.1955 38.5269 91.9883 37.1386 91.9883 35.4485ZM97.3 35.4485C97.3 34.1206 96.3342 33.0341 94.9459 33.0341C93.5576 33.0341 92.6522 34.1206 92.6522 35.4485C92.6522 36.7764 93.618 37.8629 95.0063 37.8629C96.3946 37.8629 97.3 36.8368 97.3 35.4485Z" fill="#413954"/>
</svg>
